<svg xmlns="http://www.w3.org/2000/svg" width="740" height="740" viewBox="0 0 740 740">
<g>
<path d="M 57.00 692.00 C57.00,691.44 62.24,680.31 68.64,667.25 C94.10,615.31 105.25,592.28 130.47,539.50 C144.93,509.25 164.18,468.98 173.25,450.00 C182.32,431.02 198.86,396.38 210.00,373.00 C221.15,349.62 244.67,300.58 262.28,264.00 C279.88,227.43 297.09,191.65 300.51,184.50 C305.66,173.75 324.86,133.80 363.60,53.25 C366.57,47.06 369.40,42.00 369.87,42.00 C370.35,42.00 371.88,44.59 373.27,47.75 C374.66,50.91 385.46,73.53 397.26,98.00 C409.07,122.47 426.94,159.60 436.98,180.50 C458.92,226.18 495.36,301.45 507.91,327.00 C512.90,337.17 516.99,346.19 516.99,347.03 C517.00,348.11 513.09,349.84 503.75,352.89 C476.56,361.79 447.66,374.93 424.00,389.13 C398.23,404.60 354.32,434.40 336.50,448.51 C315.54,465.11 312.28,468.58 413.69,366.34 L 430.89 349.01 L 401.13 286.42 C384.76,251.99 370.96,223.81 370.45,223.80 C369.95,223.79 355.25,253.41 337.80,289.64 C300.10,367.88 294.28,379.95 280.96,407.50 C275.38,419.05 263.02,444.70 253.50,464.50 C243.98,484.30 229.18,515.08 220.60,532.90 C212.02,550.71 205.00,565.42 205.00,565.58 C205.00,566.45 223.24,558.20 242.00,548.85 C280.81,529.50 317.37,506.06 383.50,458.14 C421.38,430.68 440.76,418.64 473.22,402.39 C514.27,381.84 551.40,370.20 594.50,364.38 C611.57,362.08 655.64,361.83 671.00,363.95 L 681.50 365.40 L 675.00 366.23 C631.11,371.85 601.20,380.39 565.16,397.58 C547.36,406.08 536.55,412.27 518.00,424.59 C498.36,437.63 489.87,444.29 440.64,485.22 C348.51,561.83 329.31,576.12 280.16,604.70 C218.70,640.44 139.76,672.50 70.31,689.94 C56.45,693.42 57.00,693.33 57.00,692.00 ZM 663.84 688.51 C605.21,673.27 556.52,654.94 503.08,628.00 C465.13,608.86 429.72,587.67 401.28,567.10 C400.06,566.22 399.05,565.18 399.03,564.80 C399.01,564.41 403.16,561.01 408.25,557.23 C415.70,551.69 441.54,530.89 449.18,524.27 C450.68,522.97 451.34,523.14 455.18,525.75 C462.15,530.49 481.25,541.60 490.21,546.12 C498.03,550.07 534.09,564.25 534.71,563.62 C534.87,563.46 526.18,545.39 515.40,523.45 L 495.79 483.58 L 498.36 481.37 C499.78,480.15 508.71,473.65 518.22,466.92 C527.72,460.19 539.33,451.87 544.00,448.44 C548.67,445.01 554.22,441.19 556.32,439.96 C560.76,437.36 561.69,437.88 564.27,444.50 C565.13,446.70 572.67,462.45 581.02,479.50 C589.37,496.55 605.44,529.85 616.73,553.50 C628.02,577.15 647.77,617.87 660.63,643.99 C673.48,670.11 684.00,691.83 684.00,692.24 C684.00,693.53 681.06,692.99 663.84,688.51 Z" fill="rgba(0,0,0,1)"/>
</g>
</svg>